 <svg width="156" height="85" viewBox="0 0 156 85" fill="none" xmlns="http://www.w3.org/2000/svg">
<g filter="url(#filter0_d_75_1093)">
<path d="M14.9773 56.1652V71.097H6.64205V36.1879H14.7045V49.722H14.9943C15.5852 48.1084 16.5511 46.847 17.892 45.9379C19.2443 45.0288 20.8977 44.5743 22.8523 44.5743C24.6932 44.5743 26.2955 44.9834 27.6591 45.8016C29.0227 46.6084 30.0795 47.7504 30.8295 49.2277C31.5909 50.705 31.9659 52.4322 31.9545 54.4095V71.097H23.6193V56.0459C23.6307 54.5913 23.267 53.455 22.5284 52.6368C21.7898 51.8186 20.75 51.4095 19.4091 51.4095C18.5341 51.4095 17.7614 51.6027 17.0909 51.9891C16.4318 52.3641 15.9148 52.9038 15.5398 53.6084C15.1761 54.3129 14.9886 55.1652 14.9773 56.1652ZM44.5384 71.5402C42.8679 71.5402 41.3849 71.2618 40.0895 70.705C38.8054 70.1368 37.7884 69.2845 37.0384 68.1482C36.2997 67.0004 35.9304 65.5629 35.9304 63.8357C35.9304 62.3811 36.1861 61.1538 36.6974 60.1538C37.2088 59.1538 37.9134 58.3413 38.8111 57.7163C39.7088 57.0913 40.7429 56.6197 41.9134 56.3016C43.0838 55.972 44.3338 55.7504 45.6634 55.6368C47.152 55.5004 48.3509 55.3584 49.2599 55.2107C50.169 55.0516 50.8281 54.83 51.2372 54.5459C51.6577 54.2504 51.8679 53.8357 51.8679 53.3016V53.2163C51.8679 52.3413 51.5668 51.6652 50.9645 51.1879C50.3622 50.7107 49.5497 50.472 48.527 50.472C47.4247 50.472 46.5384 50.7107 45.8679 51.1879C45.1974 51.6652 44.7713 52.3243 44.5895 53.1652L36.902 52.8925C37.1293 51.3016 37.7145 49.8811 38.6577 48.6311C39.6122 47.3697 40.919 46.3811 42.5781 45.6652C44.2486 44.9379 46.2543 44.5743 48.5952 44.5743C50.2656 44.5743 51.8054 44.7732 53.2145 45.1709C54.6236 45.5572 55.8509 46.1254 56.8963 46.8754C57.9418 47.6141 58.7486 48.5232 59.3168 49.6027C59.8963 50.6822 60.1861 51.9152 60.1861 53.3016V71.097H52.3452V67.4493H52.1406C51.6747 68.3357 51.0781 69.0857 50.3509 69.6993C49.6349 70.3129 48.7884 70.7732 47.8111 71.08C46.8452 71.3868 45.7543 71.5402 44.5384 71.5402ZM47.1122 66.0857C48.0099 66.0857 48.8168 65.9038 49.5327 65.5402C50.2599 65.1766 50.8395 64.6766 51.2713 64.0402C51.7031 63.3925 51.919 62.6425 51.919 61.7902V59.3016C51.6804 59.4266 51.3906 59.5402 51.0497 59.6425C50.7202 59.7447 50.3565 59.8413 49.9588 59.9322C49.5611 60.0232 49.152 60.1027 48.7315 60.1709C48.3111 60.2391 47.9077 60.3016 47.5213 60.3584C46.7372 60.4834 46.0668 60.6766 45.5099 60.9379C44.9645 61.1993 44.544 61.5402 44.2486 61.9607C43.9645 62.3697 43.8224 62.8584 43.8224 63.4266C43.8224 64.2902 44.1293 64.9493 44.7429 65.4038C45.3679 65.8584 46.1577 66.0857 47.1122 66.0857ZM65.2827 71.097V36.1879H73.6179V49.3982H73.7884C74.1293 48.6027 74.6122 47.8357 75.2372 47.097C75.8736 46.3584 76.6804 45.7561 77.6577 45.2902C78.6463 44.8129 79.8281 44.5743 81.2031 44.5743C83.0213 44.5743 84.7202 45.0516 86.2997 46.0061C87.8906 46.9607 89.1747 48.4322 90.152 50.4209C91.1293 52.4095 91.6179 54.9436 91.6179 58.0232C91.6179 60.9891 91.1463 63.472 90.2031 65.472C89.2713 67.472 88.0099 68.972 86.419 69.972C84.8395 70.972 83.0838 71.472 81.152 71.472C79.8338 71.472 78.6918 71.2561 77.7259 70.8243C76.7599 70.3925 75.9474 69.8243 75.2884 69.1197C74.6406 68.4152 74.1406 67.6595 73.7884 66.8527H73.5327V71.097H65.2827ZM73.4474 58.0061C73.4474 59.4152 73.6349 60.6425 74.0099 61.6879C74.3963 62.7334 74.9474 63.5459 75.6634 64.1254C76.3906 64.6936 77.2599 64.9777 78.2713 64.9777C79.294 64.9777 80.1634 64.6936 80.8793 64.1254C81.5952 63.5459 82.1349 62.7334 82.4986 61.6879C82.8736 60.6425 83.0611 59.4152 83.0611 58.0061C83.0611 56.597 82.8736 55.3754 82.4986 54.3413C82.1349 53.3072 81.5952 52.5061 80.8793 51.9379C80.1747 51.3697 79.3054 51.0857 78.2713 51.0857C77.2486 51.0857 76.3793 51.3641 75.6634 51.9209C74.9474 52.4777 74.3963 53.2732 74.0099 54.3072C73.6349 55.3413 73.4474 56.5743 73.4474 58.0061ZM95.9858 71.097V44.9152H104.321V71.097H95.9858ZM100.162 41.8641C98.9915 41.8641 97.9858 41.4777 97.1449 40.705C96.304 39.9209 95.8835 38.9777 95.8835 37.8754C95.8835 36.7845 96.304 35.8527 97.1449 35.08C97.9858 34.2959 98.9915 33.9038 100.162 33.9038C101.344 33.9038 102.349 34.2959 103.179 35.08C104.02 35.8527 104.44 36.7845 104.44 37.8754C104.44 38.9777 104.02 39.9209 103.179 40.705C102.349 41.4777 101.344 41.8641 100.162 41.8641ZM124.405 44.9152V51.0516H107.888V44.9152H124.405ZM111.348 38.6425H119.683V62.8641C119.683 63.3754 119.763 63.7902 119.922 64.1084C120.092 64.4152 120.337 64.6368 120.655 64.7732C120.973 64.8982 121.354 64.9607 121.797 64.9607C122.115 64.9607 122.45 64.9322 122.803 64.8754C123.166 64.8072 123.439 64.7504 123.621 64.705L124.882 70.722C124.484 70.8357 123.922 70.9777 123.195 71.1482C122.479 71.3186 121.621 71.4266 120.621 71.472C118.666 71.5629 116.99 71.3357 115.592 70.7902C114.206 70.2334 113.143 69.3697 112.405 68.1993C111.678 67.0288 111.325 65.5572 111.348 63.7845V38.6425ZM151.188 52.9095L143.534 53.1141C143.455 52.5686 143.239 52.0857 142.886 51.6652C142.534 51.2334 142.074 50.8982 141.506 50.6595C140.949 50.4095 140.301 50.2845 139.562 50.2845C138.597 50.2845 137.773 50.4777 137.091 50.8641C136.42 51.2504 136.091 51.7732 136.102 52.4322C136.091 52.9436 136.295 53.3868 136.716 53.7618C137.148 54.1368 137.915 54.4379 139.017 54.6652L144.062 55.6197C146.676 56.1197 148.619 56.9493 149.892 58.1084C151.176 59.2675 151.824 60.8016 151.835 62.7107C151.824 64.5061 151.29 66.0686 150.233 67.3982C149.188 68.7277 147.756 69.7618 145.938 70.5004C144.119 71.2277 142.04 71.5913 139.699 71.5913C135.96 71.5913 133.011 70.8243 130.852 69.2902C128.705 67.7447 127.477 65.6766 127.17 63.0857L135.403 62.8811C135.585 63.8357 136.057 64.5629 136.818 65.0629C137.58 65.5629 138.551 65.8129 139.733 65.8129C140.801 65.8129 141.67 65.6141 142.341 65.2163C143.011 64.8186 143.352 64.2902 143.364 63.6311C143.352 63.0402 143.091 62.5686 142.58 62.2163C142.068 61.8527 141.267 61.5686 140.176 61.3641L135.608 60.4947C132.983 60.0175 131.028 59.1368 129.744 57.8527C128.46 56.5572 127.824 54.9095 127.835 52.9095C127.824 51.1595 128.29 49.6652 129.233 48.4266C130.176 47.1766 131.517 46.222 133.256 45.5629C134.994 44.9038 137.045 44.5743 139.409 44.5743C142.955 44.5743 145.75 45.3186 147.795 46.8072C149.841 48.2845 150.972 50.3186 151.188 52.9095Z" fill="white"/>
<rect x="4.5" y="0.597015" width="15" height="15" rx="3.5" fill="#18181B" stroke="#27272A"/>
<rect x="24.5" y="0.597015" width="15" height="15" rx="3.5" fill="#4C1D95" stroke="#6D28D9"/>
<rect x="44.5" y="0.597015" width="15" height="15" rx="3.5" fill="#5B21B6" stroke="#7C3AED"/>
<rect x="64.5" y="0.597015" width="15" height="15" rx="3.5" fill="#6D28D9" stroke="#8B5CF6"/>
<rect x="84.5" y="0.597015" width="15" height="15" rx="3.5" fill="#7C3AED" stroke="#A78BFA"/>
<rect x="104.5" y="0.597015" width="15" height="15" rx="3.5" fill="#8B5CF6" stroke="#C4B5FD"/>
</g>
<defs>
<filter id="filter0_d_75_1093" x="0" y="0.0970154" width="155.835" height="79.5114" filterUnits="userSpaceOnUse" color-interpolation-filters="sRGB">
<feFlood flood-opacity="0" result="BackgroundImageFix"/>
<feColorMatrix in="SourceAlpha" type="matrix" values="0 0 0 0 0 0 0 0 0 0 0 0 0 0 0 0 0 0 127 0" result="hardAlpha"/>
<feOffset dy="4"/>
<feGaussianBlur stdDeviation="2"/>
<feComposite in2="hardAlpha" operator="out"/>
<feColorMatrix type="matrix" values="0 0 0 0 0 0 0 0 0 0 0 0 0 0 0 0 0 0 0.25 0"/>
<feBlend mode="normal" in2="BackgroundImageFix" result="effect1_dropShadow_75_1093"/>
<feBlend mode="normal" in="SourceGraphic" in2="effect1_dropShadow_75_1093" result="shape"/>
</filter>
</defs>
</svg>